<mxfile host="Electron" agent="Mozilla/5.0 (X11; Linux x86_64) AppleWebKit/537.36 (KHTML, like Gecko) draw.io/25.0.1 Chrome/128.0.6613.186 Electron/32.2.6 Safari/537.36" version="25.0.1">
  <diagram name="Page-1" id="8U9sh7LUOv4hBgU_jswF">
    <mxGraphModel dx="993" dy="635" grid="1" gridSize="10" guides="1" tooltips="1" connect="1" arrows="1" fold="1" page="1" pageScale="1" pageWidth="1100" pageHeight="850" math="0" shadow="0">
      <root>
        <mxCell id="0" />
        <mxCell id="1" parent="0" />
        <mxCell id="VbXQ-qjcBvyBqEERKwmz-1" value="" style="html=1;points=[[0,0,0,0,5],[0,1,0,0,-5],[1,0,0,0,5],[1,1,0,0,-5]];perimeter=orthogonalPerimeter;outlineConnect=0;targetShapes=umlLifeline;portConstraint=eastwest;newEdgeStyle={&quot;curved&quot;:0,&quot;rounded&quot;:0};" vertex="1" parent="1">
          <mxGeometry x="150" y="90" width="10" height="620" as="geometry" />
        </mxCell>
        <mxCell id="VbXQ-qjcBvyBqEERKwmz-2" value="" style="html=1;points=[[0,0,0,0,5],[0,1,0,0,-5],[1,0,0,0,5],[1,1,0,0,-5]];perimeter=orthogonalPerimeter;outlineConnect=0;targetShapes=umlLifeline;portConstraint=eastwest;newEdgeStyle={&quot;curved&quot;:0,&quot;rounded&quot;:0};" vertex="1" parent="1">
          <mxGeometry x="160" y="100" width="10" height="80" as="geometry" />
        </mxCell>
        <mxCell id="VbXQ-qjcBvyBqEERKwmz-3" value="DFL" style="html=1;verticalAlign=bottom;endArrow=block;curved=0;rounded=0;entryX=1;entryY=0;entryDx=0;entryDy=5;" edge="1" target="VbXQ-qjcBvyBqEERKwmz-2" parent="1">
          <mxGeometry relative="1" as="geometry">
            <mxPoint x="240" y="105" as="sourcePoint" />
          </mxGeometry>
        </mxCell>
        <mxCell id="VbXQ-qjcBvyBqEERKwmz-4" value="13/12/2024" style="html=1;verticalAlign=bottom;endArrow=open;dashed=1;endSize=8;curved=0;rounded=0;exitX=1;exitY=1;exitDx=0;exitDy=-5;" edge="1" source="VbXQ-qjcBvyBqEERKwmz-2" parent="1">
          <mxGeometry relative="1" as="geometry">
            <mxPoint x="240" y="175" as="targetPoint" />
          </mxGeometry>
        </mxCell>
        <mxCell id="VbXQ-qjcBvyBqEERKwmz-5" value="Services" style="text;html=1;align=center;verticalAlign=middle;whiteSpace=wrap;rounded=0;" vertex="1" parent="1">
          <mxGeometry x="125" y="50" width="60" height="30" as="geometry" />
        </mxCell>
        <mxCell id="VbXQ-qjcBvyBqEERKwmz-6" value="Core" style="text;html=1;align=center;verticalAlign=middle;whiteSpace=wrap;rounded=0;" vertex="1" parent="1">
          <mxGeometry x="490" y="50" width="60" height="30" as="geometry" />
        </mxCell>
        <mxCell id="VbXQ-qjcBvyBqEERKwmz-7" value="" style="html=1;points=[[0,0,0,0,5],[0,1,0,0,-5],[1,0,0,0,5],[1,1,0,0,-5]];perimeter=orthogonalPerimeter;outlineConnect=0;targetShapes=umlLifeline;portConstraint=eastwest;newEdgeStyle={&quot;curved&quot;:0,&quot;rounded&quot;:0};" vertex="1" parent="1">
          <mxGeometry x="160" y="220" width="10" height="80" as="geometry" />
        </mxCell>
        <mxCell id="VbXQ-qjcBvyBqEERKwmz-8" value="KU Project" style="html=1;verticalAlign=bottom;endArrow=block;curved=0;rounded=0;entryX=1;entryY=0;entryDx=0;entryDy=5;" edge="1" parent="1" target="VbXQ-qjcBvyBqEERKwmz-7">
          <mxGeometry relative="1" as="geometry">
            <mxPoint x="240" y="225" as="sourcePoint" />
          </mxGeometry>
        </mxCell>
        <mxCell id="VbXQ-qjcBvyBqEERKwmz-9" value="31/12/2024" style="html=1;verticalAlign=bottom;endArrow=open;dashed=1;endSize=8;curved=0;rounded=0;exitX=1;exitY=1;exitDx=0;exitDy=-5;" edge="1" parent="1" source="VbXQ-qjcBvyBqEERKwmz-7">
          <mxGeometry relative="1" as="geometry">
            <mxPoint x="240" y="295" as="targetPoint" />
          </mxGeometry>
        </mxCell>
        <mxCell id="VbXQ-qjcBvyBqEERKwmz-10" value="" style="html=1;points=[[0,0,0,0,5],[0,1,0,0,-5],[1,0,0,0,5],[1,1,0,0,-5]];perimeter=orthogonalPerimeter;outlineConnect=0;targetShapes=umlLifeline;portConstraint=eastwest;newEdgeStyle={&quot;curved&quot;:0,&quot;rounded&quot;:0};" vertex="1" parent="1">
          <mxGeometry x="160" y="345" width="10" height="80" as="geometry" />
        </mxCell>
        <mxCell id="VbXQ-qjcBvyBqEERKwmz-11" value="Workshops" style="html=1;verticalAlign=bottom;endArrow=block;curved=0;rounded=0;entryX=1;entryY=0;entryDx=0;entryDy=5;" edge="1" parent="1" target="VbXQ-qjcBvyBqEERKwmz-10">
          <mxGeometry relative="1" as="geometry">
            <mxPoint x="240" y="350" as="sourcePoint" />
          </mxGeometry>
        </mxCell>
        <mxCell id="VbXQ-qjcBvyBqEERKwmz-12" value="13/12/2024" style="html=1;verticalAlign=bottom;endArrow=open;dashed=1;endSize=8;curved=0;rounded=0;exitX=1;exitY=1;exitDx=0;exitDy=-5;" edge="1" parent="1" source="VbXQ-qjcBvyBqEERKwmz-10">
          <mxGeometry relative="1" as="geometry">
            <mxPoint x="240" y="420" as="targetPoint" />
          </mxGeometry>
        </mxCell>
        <mxCell id="VbXQ-qjcBvyBqEERKwmz-13" value="" style="html=1;points=[[0,0,0,0,5],[0,1,0,0,-5],[1,0,0,0,5],[1,1,0,0,-5]];perimeter=orthogonalPerimeter;outlineConnect=0;targetShapes=umlLifeline;portConstraint=eastwest;newEdgeStyle={&quot;curved&quot;:0,&quot;rounded&quot;:0};" vertex="1" parent="1">
          <mxGeometry x="160" y="480" width="10" height="80" as="geometry" />
        </mxCell>
        <mxCell id="VbXQ-qjcBvyBqEERKwmz-14" value="Inspection Drone" style="html=1;verticalAlign=bottom;endArrow=block;curved=0;rounded=0;entryX=1;entryY=0;entryDx=0;entryDy=5;" edge="1" parent="1" target="VbXQ-qjcBvyBqEERKwmz-13">
          <mxGeometry relative="1" as="geometry">
            <mxPoint x="240" y="485" as="sourcePoint" />
          </mxGeometry>
        </mxCell>
        <mxCell id="VbXQ-qjcBvyBqEERKwmz-15" value="13/12/2024" style="html=1;verticalAlign=bottom;endArrow=open;dashed=1;endSize=8;curved=0;rounded=0;exitX=1;exitY=1;exitDx=0;exitDy=-5;" edge="1" parent="1" source="VbXQ-qjcBvyBqEERKwmz-13">
          <mxGeometry relative="1" as="geometry">
            <mxPoint x="240" y="555" as="targetPoint" />
          </mxGeometry>
        </mxCell>
        <mxCell id="VbXQ-qjcBvyBqEERKwmz-16" value="(with QGC + real-time tuning + online data + licensing)" style="text;html=1;align=center;verticalAlign=middle;whiteSpace=wrap;rounded=0;" vertex="1" parent="1">
          <mxGeometry x="233" y="327" width="147" height="30" as="geometry" />
        </mxCell>
        <mxCell id="VbXQ-qjcBvyBqEERKwmz-21" value="(with QGC + Joystick control)" style="text;html=1;align=center;verticalAlign=middle;whiteSpace=wrap;rounded=0;" vertex="1" parent="1">
          <mxGeometry x="240" y="470" width="147" height="30" as="geometry" />
        </mxCell>
        <mxCell id="VbXQ-qjcBvyBqEERKwmz-22" value="" style="html=1;points=[[0,0,0,0,5],[0,1,0,0,-5],[1,0,0,0,5],[1,1,0,0,-5]];perimeter=orthogonalPerimeter;outlineConnect=0;targetShapes=umlLifeline;portConstraint=eastwest;newEdgeStyle={&quot;curved&quot;:0,&quot;rounded&quot;:0};" vertex="1" parent="1">
          <mxGeometry x="510" y="90" width="10" height="620" as="geometry" />
        </mxCell>
        <mxCell id="VbXQ-qjcBvyBqEERKwmz-23" value="" style="html=1;points=[[0,0,0,0,5],[0,1,0,0,-5],[1,0,0,0,5],[1,1,0,0,-5]];perimeter=orthogonalPerimeter;outlineConnect=0;targetShapes=umlLifeline;portConstraint=eastwest;newEdgeStyle={&quot;curved&quot;:0,&quot;rounded&quot;:0};" vertex="1" parent="1">
          <mxGeometry x="520" y="100" width="10" height="80" as="geometry" />
        </mxCell>
        <mxCell id="VbXQ-qjcBvyBqEERKwmz-24" value="Cater Services" style="html=1;verticalAlign=bottom;endArrow=block;curved=0;rounded=0;entryX=1;entryY=0;entryDx=0;entryDy=5;" edge="1" parent="1" target="VbXQ-qjcBvyBqEERKwmz-23">
          <mxGeometry relative="1" as="geometry">
            <mxPoint x="600" y="105" as="sourcePoint" />
          </mxGeometry>
        </mxCell>
        <mxCell id="VbXQ-qjcBvyBqEERKwmz-25" value="13/12/2024" style="html=1;verticalAlign=bottom;endArrow=open;dashed=1;endSize=8;curved=0;rounded=0;exitX=1;exitY=1;exitDx=0;exitDy=-5;" edge="1" parent="1" source="VbXQ-qjcBvyBqEERKwmz-23">
          <mxGeometry relative="1" as="geometry">
            <mxPoint x="600" y="175" as="targetPoint" />
          </mxGeometry>
        </mxCell>
        <mxCell id="VbXQ-qjcBvyBqEERKwmz-26" value="" style="html=1;points=[[0,0,0,0,5],[0,1,0,0,-5],[1,0,0,0,5],[1,1,0,0,-5]];perimeter=orthogonalPerimeter;outlineConnect=0;targetShapes=umlLifeline;portConstraint=eastwest;newEdgeStyle={&quot;curved&quot;:0,&quot;rounded&quot;:0};" vertex="1" parent="1">
          <mxGeometry x="520" y="220" width="10" height="80" as="geometry" />
        </mxCell>
        <mxCell id="VbXQ-qjcBvyBqEERKwmz-27" value="Ser. WFlow V2" style="html=1;verticalAlign=bottom;endArrow=block;curved=0;rounded=0;entryX=1;entryY=0;entryDx=0;entryDy=5;" edge="1" parent="1" target="VbXQ-qjcBvyBqEERKwmz-26">
          <mxGeometry relative="1" as="geometry">
            <mxPoint x="600" y="225" as="sourcePoint" />
          </mxGeometry>
        </mxCell>
        <mxCell id="VbXQ-qjcBvyBqEERKwmz-28" value="20/12/2024" style="html=1;verticalAlign=bottom;endArrow=open;dashed=1;endSize=8;curved=0;rounded=0;exitX=1;exitY=1;exitDx=0;exitDy=-5;" edge="1" parent="1" source="VbXQ-qjcBvyBqEERKwmz-26">
          <mxGeometry relative="1" as="geometry">
            <mxPoint x="600" y="295" as="targetPoint" />
          </mxGeometry>
        </mxCell>
        <mxCell id="VbXQ-qjcBvyBqEERKwmz-29" value="" style="html=1;points=[[0,0,0,0,5],[0,1,0,0,-5],[1,0,0,0,5],[1,1,0,0,-5]];perimeter=orthogonalPerimeter;outlineConnect=0;targetShapes=umlLifeline;portConstraint=eastwest;newEdgeStyle={&quot;curved&quot;:0,&quot;rounded&quot;:0};" vertex="1" parent="1">
          <mxGeometry x="520" y="345" width="10" height="80" as="geometry" />
        </mxCell>
        <mxCell id="VbXQ-qjcBvyBqEERKwmz-30" value="Ser. WFlow V2" style="html=1;verticalAlign=bottom;endArrow=block;curved=0;rounded=0;entryX=1;entryY=0;entryDx=0;entryDy=5;" edge="1" parent="1" target="VbXQ-qjcBvyBqEERKwmz-29">
          <mxGeometry relative="1" as="geometry">
            <mxPoint x="600" y="350" as="sourcePoint" />
          </mxGeometry>
        </mxCell>
        <mxCell id="VbXQ-qjcBvyBqEERKwmz-31" value="20/12/2024" style="html=1;verticalAlign=bottom;endArrow=open;dashed=1;endSize=8;curved=0;rounded=0;exitX=1;exitY=1;exitDx=0;exitDy=-5;" edge="1" parent="1" source="VbXQ-qjcBvyBqEERKwmz-29">
          <mxGeometry relative="1" as="geometry">
            <mxPoint x="600" y="420" as="targetPoint" />
          </mxGeometry>
        </mxCell>
        <mxCell id="VbXQ-qjcBvyBqEERKwmz-32" value="" style="html=1;points=[[0,0,0,0,5],[0,1,0,0,-5],[1,0,0,0,5],[1,1,0,0,-5]];perimeter=orthogonalPerimeter;outlineConnect=0;targetShapes=umlLifeline;portConstraint=eastwest;newEdgeStyle={&quot;curved&quot;:0,&quot;rounded&quot;:0};" vertex="1" parent="1">
          <mxGeometry x="520" y="470" width="10" height="80" as="geometry" />
        </mxCell>
        <mxCell id="VbXQ-qjcBvyBqEERKwmz-33" value="Ser. WFlow V2" style="html=1;verticalAlign=bottom;endArrow=block;curved=0;rounded=0;entryX=1;entryY=0;entryDx=0;entryDy=5;" edge="1" parent="1" target="VbXQ-qjcBvyBqEERKwmz-32">
          <mxGeometry relative="1" as="geometry">
            <mxPoint x="600" y="475" as="sourcePoint" />
          </mxGeometry>
        </mxCell>
        <mxCell id="VbXQ-qjcBvyBqEERKwmz-34" value="31/12/2024" style="html=1;verticalAlign=bottom;endArrow=open;dashed=1;endSize=8;curved=0;rounded=0;exitX=1;exitY=1;exitDx=0;exitDy=-5;" edge="1" parent="1" source="VbXQ-qjcBvyBqEERKwmz-32">
          <mxGeometry relative="1" as="geometry">
            <mxPoint x="600" y="545" as="targetPoint" />
          </mxGeometry>
        </mxCell>
        <mxCell id="VbXQ-qjcBvyBqEERKwmz-35" value="(Testing, robustification, and optimization)" style="text;html=1;align=center;verticalAlign=middle;whiteSpace=wrap;rounded=0;" vertex="1" parent="1">
          <mxGeometry x="600" y="460" width="147" height="30" as="geometry" />
        </mxCell>
      </root>
    </mxGraphModel>
  </diagram>
</mxfile>
